<?xml version="1.0" encoding="UTF-8" standalone="no"?>
<svg
   width="200mm"
   height="200mm"
   viewBox="0 0 200 200"
   version="1.1"
   id="svg1"
   inkscape:version="1.3.2 (091e20ef0f, 2023-11-25, custom)"
   sodipodi:docname="yellow-sign.svg"
   xml:space="preserve"
   xmlns:inkscape="http://www.inkscape.org/namespaces/inkscape"
   xmlns:sodipodi="http://sodipodi.sourceforge.net/DTD/sodipodi-0.dtd"
   xmlns="http://www.w3.org/2000/svg"
   xmlns:svg="http://www.w3.org/2000/svg"
   xmlns:rdf="http://www.w3.org/1999/02/22-rdf-syntax-ns#"
   xmlns:cc="http://creativecommons.org/ns#"><sodipodi:namedview
     id="namedview1"
     pagecolor="#000000"
     bordercolor="#666666"
     borderopacity="1.0"
     inkscape:showpageshadow="2"
     inkscape:pageopacity="0.0"
     inkscape:pagecheckerboard="0"
     inkscape:deskcolor="#d1d1d1"
     inkscape:document-units="mm"
     inkscape:zoom="8"
     inkscape:cx="408.6875"
     inkscape:cy="462.375"
     inkscape:window-width="3432"
     inkscape:window-height="1432"
     inkscape:window-x="0"
     inkscape:window-y="0"
     inkscape:window-maximized="0"
     inkscape:current-layer="layer1" /><defs
     id="defs1" /><g
     inkscape:label="Layer 1"
     inkscape:groupmode="layer"
     id="layer1"><path
       style="fill:#ffd00b;fill-opacity:1;stroke:#ffd00b;stroke-width:0.264583px;stroke-linecap:butt;stroke-linejoin:miter;stroke-opacity:1"
       d="m 98.588298,163.66443 c 6.533192,-0.44287 11.915802,-0.7754 19.921522,-8.28813 7.15228,-7.80908 6.56851,-12.76072 6.56851,-12.76072 -4.66949,-3.90811 0.3476,-8.04912 0.3476,-8.04912 -2.61586,-18.76819 -22.63083,-22.53437 -22.63083,-22.53437 -1.20279,-0.3758 -0.9573,-4.80854 0.11851,-5.89938 0.77413,-0.92592 2.3526,0.18589 3.8518,0.25571 6.84939,0.81615 16.55698,0.50827 28.79496,-0.41721 0,0 7.20301,-0.35175 5.01847,-8.798777 0,0 -12.15955,-22.409442 -20.74886,-21.074123 0,0 -1.32627,1.061219 0.0828,2.613235 1.40904,1.552015 6.36741,14.879969 4.32368,15.704984 -2.27523,0.202312 -19.52478,1.496748 -20.68616,0.288527 -0.94342,-1.360929 1.52355,-9.045324 1.3081,-9.080583 0,0 -0.18982,-4.323939 -5.537645,-6.092307 -5.916521,-0.68187 -7.105165,4.974029 -7.105165,4.974029 -0.274167,0.09258 0.855403,8.868526 -0.183189,9.953139 -0.928289,0.67435 -6.224609,-0.332655 -11.519547,-0.477011 -5.294939,-0.144355 -10.210225,0.293983 -10.942821,-0.0081 -0.96217,-1.379864 6.587383,-12.382925 11.171839,-19.20615 2.510545,-3.736543 5.65242,-8.649345 7.03187,-11.518677 1.69447,-3.524591 4.220673,-12.508022 4.220673,-12.508022 0,0 0.576967,-2.241723 0.365094,-4.464068 -0.211874,-2.222345 -6.818447,4.382419 -6.818447,4.382419 0,0 -12.135693,13.521397 -22.090125,28.241687 L 52.9177,93.22015 c 0,0 -2.461348,3.378605 -1.81901,8.92995 0,0 0.373104,3.48376 5.095296,3.80467 4.722192,0.32091 31.142285,-1.11311 31.142285,-1.11311 0,0 3.424597,-0.21833 4.865853,2.80216 0.718006,2.06048 0.578721,3.84853 0.04832,4.37092 -1.333778,0.92622 -2.731875,-0.70551 -14.791345,9.15047 0,0 -1.029395,2.0358 3.787623,2.60114 0,0 1.208454,0.30024 5.702753,-1.87689 4.494299,-2.17713 10.047966,-0.21859 10.047966,-0.21859 0,0 11.137301,2.5461 14.287501,18.13119 3.15019,15.5851 -10.85283,22.62498 -10.85283,22.62498 z"
       id="path1"
       sodipodi:nodetypes="cccccccscccccccccscsscsccccscccccscscc" /><path
       style="fill:#ffd00b;stroke:#ffd00b;stroke-width:0.264583px;stroke-linecap:butt;stroke-linejoin:miter;stroke-opacity:1;fill-opacity:1"
       d="m 114.02224,50.179365 c 0,0 -2.97786,8.881888 5.96527,8.880338 0,0 -2.10065,8.343935 -10.7332,4.681626 0,0 -5.13612,-3.172416 -2.9608,-8.9085 2.17532,-5.736084 7.72873,-4.653464 7.72873,-4.653464 z"
       id="path2"
       sodipodi:nodetypes="cccsc" /><path
       style="fill:#ffd00b;stroke:#ffd00b;stroke-width:0.264583px;stroke-linecap:butt;stroke-linejoin:miter;stroke-opacity:1;fill-opacity:1"
       d="m 86.16425,147.58944 c 5.562968,1.51929 4.657338,7.13574 4.657338,7.13574 -1.817202,5.52059 -6.942989,4.13024 -6.942989,4.13024 2.813267,-7.1745 -3.859453,-7.4905 -3.859453,-7.4905 0.09147,-0.21678 1.649771,-4.1969 6.145104,-3.77548 z"
       id="path3" /><path
       style="fill:#000000;stroke-width:0.25"
       d=""
       id="path6"
       transform="scale(0.26458333)" /></g><metadata
     id="metadata1"><rdf:RDF><cc:License
         rdf:about="http://creativecommons.org/publicdomain/zero/1.0/"><cc:permits
           rdf:resource="http://creativecommons.org/ns#Reproduction" /><cc:permits
           rdf:resource="http://creativecommons.org/ns#Distribution" /><cc:permits
           rdf:resource="http://creativecommons.org/ns#DerivativeWorks" /></cc:License><cc:Work
         rdf:about=""><cc:license
           rdf:resource="http://creativecommons.org/publicdomain/zero/1.0/" /></cc:Work></rdf:RDF></metadata></svg>
